<svg width="1106" height="229" viewBox="0 0 1106 229" fill="none" xmlns="http://www.w3.org/2000/svg">
<path fill-rule="evenodd" clip-rule="evenodd" d="M1069.88 147.774C1069.88 174.092 1062.01 185.829 1044.37 185.829C1027 185.829 1019.26 174.092 1019.26 147.774V80.9931C1019.26 54.6722 1027 42.9356 1044.37 42.9356C1062.25 42.9356 1069.88 54.3215 1069.88 80.9931V147.774ZM1044.77 10.9666C1025.9 10.9666 1010.24 16.4459 999.471 26.8166C987.811 38.8986 984.061 52.6602 984.061 83.4163V145.35C984.061 176.114 987.811 189.876 999.5 201.977C1010.24 212.321 1025.9 217.798 1044.77 217.798C1063.37 217.798 1078.89 212.321 1089.67 201.948C1101.47 190.142 1105.08 176.919 1105.08 145.35V83.4163C1105.08 51.8586 1101.47 38.6323 1089.65 26.7981C1078.89 16.4459 1063.37 10.9666 1044.77 10.9666Z" fill="white"/>
<path fill-rule="evenodd" clip-rule="evenodd" d="M342.396 10.9666C319.838 10.9666 302.68 18.0755 292.784 31.5207C283.7 43.7556 280.483 57.8706 280.483 85.4388V143.726C280.483 171.002 283.7 185.011 292.784 197.254C302.68 210.699 319.838 217.798 342.396 217.798C362.618 217.798 378.381 211.672 389.261 199.582C399.102 188.951 403.11 174.999 403.11 151.418V144.95H367.905V149.395C367.905 174.255 359.805 185.829 342.396 185.829C332.635 185.829 324.513 181.496 320.677 174.255C316.938 167.183 315.677 158.25 315.677 138.88V90.2985C315.677 54.4427 322.167 42.9356 342.396 42.9356C359.805 42.9356 367.905 54.129 367.905 78.1585V83.8171H403.11V76.1334C403.11 52.8316 399.226 39.5578 389.271 28.7942C378.621 16.9601 362.858 10.9666 342.396 10.9666Z" fill="white"/>
<path fill-rule="evenodd" clip-rule="evenodd" d="M865.723 76.5368C865.723 52.125 873.47 41.7147 891.632 41.7147C909.17 41.7147 916.89 51.3603 917.444 73.9896L917.465 74.7332L916.806 75.0866L865.723 103.027V76.5368ZM916.297 167.938C912.89 179.819 904.866 185.829 892.444 185.829C876.592 185.829 869.425 178.577 866.877 159.951C866.076 154.11 865.744 141.474 865.723 140.942L865.704 140.195L866.361 139.845L952.754 92.9221V87.4612C952.754 56.7816 948.944 42.0654 937.677 29.1634C927.351 17.2554 911.29 10.9666 891.231 10.9666C872.631 10.9666 857.105 16.4459 846.339 26.8166C834.07 38.6982 830.518 51.3919 830.518 83.4163V143.325C830.518 169.636 833.975 184.761 842.837 197.272C852.715 210.699 869.873 217.798 892.444 217.798C917.768 217.798 936.158 208.637 945.616 191.318C951.322 181.794 952.707 172.106 953.134 144.95H917.95C917.932 158.165 917.521 163.423 916.297 167.938Z" fill="white"/>
<path fill-rule="evenodd" clip-rule="evenodd" d="M737.925 10.9771L737.103 10.9666L736.942 10.9771C718.782 11.1485 704.44 15.8711 694.304 25.0235L693.481 25.7592L692.661 25.0235C682.528 15.8711 668.186 11.1485 650.034 10.9771L649.204 10.9666L649.043 10.9771C626.951 11.188 610.136 18.268 600.43 31.4733C591.576 43.9666 588.119 59.0915 588.119 85.4019V213.716H623.315V87.8146C623.334 87.2424 623.676 74.6093 624.481 68.7766C626.999 50.3398 634.023 43.0885 649.531 42.925C665.064 43.0885 672.086 50.3398 674.607 68.7766C675.398 74.6172 675.743 87.2424 675.762 87.7856V213.716H711.214V87.8146C711.233 87.2529 711.568 74.6172 712.369 68.7766C714.89 50.3398 721.912 43.0885 737.419 42.925C752.953 43.0885 759.977 50.3398 762.495 68.7766C763.3 74.6172 763.632 87.2529 763.653 87.7856V213.716H798.844V85.4019C798.844 59.081 795.393 43.956 786.536 31.4548C776.832 18.268 760.017 11.188 737.925 10.9771Z" fill="white"/>
<path fill-rule="evenodd" clip-rule="evenodd" d="M521.153 152.23C521.153 176.642 513.406 187.052 495.246 187.052C477.706 187.052 469.985 177.404 469.432 154.777L469.413 154.034L470.07 153.68L521.153 125.738V152.23ZM494.434 10.9666C469.107 10.9666 450.718 20.1269 441.262 37.4483C435.556 46.9726 434.172 56.6577 433.742 83.8171H468.925C468.946 70.6013 469.355 65.3434 470.576 60.8292C473.983 48.9476 482.009 42.9356 494.434 42.9356C510.284 42.9356 517.451 50.1895 519.998 68.8162C520.802 74.6568 521.135 87.2899 521.153 87.8251L521.174 88.5687L520.515 88.9221L434.124 135.845V141.303C434.124 171.985 437.929 186.699 449.202 199.601C459.525 211.509 475.586 217.798 495.647 217.798C514.245 217.798 529.773 212.321 540.537 201.948C552.808 190.066 556.36 177.375 556.36 145.35V85.4388C556.36 59.1311 552.903 44.0035 544.038 31.4943C534.161 18.0676 517.003 10.9666 494.434 10.9666Z" fill="white"/>
<path fill-rule="evenodd" clip-rule="evenodd" d="M114.606 0.00277636C109.9 0.00277636 105.02 0.0381428 102.499 0.00277636C88.7585 -0.190031 91.855 9.69808 93.6859 17.6179C96.2573 28.7408 100.271 48.4431 102.499 57.2521C103.549 61.4017 104.941 68.2616 111.306 68.2616C112.892 68.2616 116.869 68.2616 117.907 68.2616C124.06 68.2616 125.568 61.8005 126.714 57.2521C128.919 48.5043 133.002 28.683 135.522 17.6179C137.406 9.34524 140.022 0.00277636 126.714 0.00277636C124.49 0.00277636 117.47 0.00277636 114.606 0.00277636Z" fill="#FA005C"/>
<path fill-rule="evenodd" clip-rule="evenodd" d="M33.5737 33.5042C30.2462 36.8317 26.8206 40.3073 25.0134 42.0645C15.1608 51.6444 24.3423 56.4468 31.2371 60.7524C40.9204 66.7992 57.6901 77.8928 65.4948 82.5459C69.1713 84.7378 75.0058 88.6046 79.5068 84.1036C80.6281 82.9823 83.4403 80.1701 84.1742 79.4362C88.5256 75.0848 85.023 69.45 82.6174 65.4233C77.9905 57.6788 66.8618 40.7761 60.8197 31.1698C56.3024 23.9878 51.5456 15.5323 42.136 24.9419C40.5632 26.5147 35.5994 31.4785 33.5737 33.5042Z" fill="#02F1E6"/>
<path fill-rule="evenodd" clip-rule="evenodd" d="M195.456 33.5737C192.128 30.2462 188.653 26.8206 186.896 25.0134C177.316 15.1608 172.513 24.3423 168.208 31.2371C162.161 40.9204 151.067 57.6901 146.414 65.4948C144.222 69.1713 140.356 75.0058 144.857 79.5068C145.978 80.6281 148.79 83.4403 149.524 84.1742C153.875 88.5256 159.51 85.023 163.537 82.6173C171.281 77.9905 188.184 66.8618 197.79 60.8197C204.972 56.3024 213.428 51.5456 204.018 42.136C202.445 40.5632 197.482 35.5994 195.456 33.5737Z" fill="#D538FF"/>
<path fill-rule="evenodd" clip-rule="evenodd" d="M195.43 195.39C198.758 192.062 202.183 188.587 203.991 186.829C213.843 177.249 204.662 172.447 197.767 168.141C188.083 162.095 171.314 151.001 163.509 146.348C159.833 144.156 153.998 140.289 149.497 144.79C148.376 145.911 145.564 148.724 144.83 149.458C140.478 153.809 143.981 159.444 146.387 163.471C151.013 171.215 162.142 188.118 168.184 197.724C172.702 204.906 177.458 213.361 186.868 203.952C188.441 202.379 193.405 197.415 195.43 195.39Z" fill="#FA005C"/>
<path fill-rule="evenodd" clip-rule="evenodd" d="M33.5801 195.386C36.9077 198.714 40.3832 202.14 42.1404 203.947C51.7203 213.799 56.5228 204.618 60.8283 197.723C66.8751 188.04 77.9687 171.27 82.6218 163.465C84.8137 159.789 88.6805 153.954 84.1795 149.453C83.0582 148.332 80.246 145.52 79.5121 144.786C75.1607 140.435 69.5259 143.937 65.4992 146.343C57.7548 150.97 40.852 162.098 31.2458 168.141C24.0637 172.658 15.6082 177.415 25.0178 186.824C26.5907 188.397 31.5544 193.361 33.5801 195.386Z" fill="#D538FF"/>
<path fill-rule="evenodd" clip-rule="evenodd" d="M114.947 228.997C119.653 228.997 124.533 228.962 127.054 228.997C140.794 229.19 137.698 219.302 135.867 211.382C133.296 200.259 129.282 180.557 127.054 171.748C126.004 167.598 124.612 160.738 118.247 160.738C116.661 160.738 112.684 160.738 111.646 160.738C105.493 160.738 103.985 167.2 102.839 171.748C100.634 180.496 96.5513 200.317 94.031 211.382C92.1468 219.655 89.5314 228.997 102.839 228.997C105.063 228.997 112.083 228.997 114.947 228.997Z" fill="#02F1E6"/>
<path fill-rule="evenodd" clip-rule="evenodd" d="M0.00277636 114.507C0.00277636 119.212 0.038143 124.092 0.00277636 126.613C-0.190031 140.354 9.69809 137.257 17.618 135.426C28.7408 132.855 48.4431 128.841 57.2521 126.613C61.4017 125.563 68.2616 124.172 68.2616 117.806C68.2616 116.22 68.2616 112.243 68.2616 111.205C68.2616 105.052 61.8005 103.544 57.2521 102.398C48.5043 100.193 28.683 96.1104 17.618 93.5901C9.34525 91.7059 0.00277636 89.0905 0.00277636 102.398C0.00277636 104.622 0.00277636 111.642 0.00277636 114.507Z" fill="#FA005C"/>
</svg>
